<svg width="1837" height="1186" viewBox="0 0 1837 1186" fill="none" xmlns="http://www.w3.org/2000/svg">
<mask id="mask0" mask-type="alpha" maskUnits="userSpaceOnUse" x="0" y="0" width="1837" height="1186">
<rect x="0.96875" width="1836.02" height="1186" rx="20" fill="#745DE4"/>
</mask>
<g mask="url(#mask0)">
<rect x="0.96875" width="1836.02" height="1186" rx="20" fill="#2E3234"/>
<g opacity="0.1">
<path d="M745.145 363.454V-172.588C745.145 -283.555 660.753 -373.616 556.56 -373.616H53.6982C-50.4007 -373.616 -134.887 -283.555 -134.887 -172.588V363.454C-134.887 474.422 -50.4007 564.483 53.6982 564.483H556.56C660.753 564.483 745.145 474.422 745.145 363.454ZM415.216 212.683H195.137V-21.917H415.216V212.683Z" fill="#FAFAFA"/>
<path d="M745.145 363.454V-172.588C745.145 -283.555 660.753 -373.616 556.56 -373.616H53.6982C-50.4007 -373.616 -134.887 -283.555 -134.887 -172.588V363.454C-134.887 474.422 -50.4007 564.483 53.6982 564.483H556.56C660.753 564.483 745.145 474.422 745.145 363.454ZM415.216 212.683H195.137V-21.917H415.216V212.683Z" fill="#F5F6FA"/>
</g>
<g opacity="0.1">
<path d="M-68.0901 924.617C-94.1148 924.617 -115.236 947.132 -115.236 974.874V1201.03C-115.236 1228.77 -94.1148 1251.29 -68.0901 1251.29H151.894C177.919 1251.29 199.04 1228.77 199.04 1201.03V974.874C199.04 947.132 177.919 924.617 151.894 924.617H-68.0901Z" fill="#FAFAFA"/>
<path d="M-68.0901 924.617C-94.1148 924.617 -115.236 947.132 -115.236 974.874V1201.03C-115.236 1228.77 -94.1148 1251.29 -68.0901 1251.29H151.894C177.919 1251.29 199.04 1228.77 199.04 1201.03V974.874C199.04 947.132 177.919 924.617 151.894 924.617H-68.0901Z" fill="#F5F6FA"/>
</g>
<g opacity="0.1">
<path d="M2878.5 1126.54C2907.41 1126.54 2930.87 1101.53 2930.87 1070.72V707.899C2930.87 677.087 2907.41 652.08 2878.5 652.08H2321.06H2320.01H2102.92V414.851H2299.28C2328.18 414.851 2351.64 389.844 2351.64 359.032V107.847C2351.64 77.0353 2328.18 52.0285 2299.28 52.0285H2102.92V-203.845C2102.92 -234.657 2079.46 -259.664 2050.56 -259.664H1806.23C1777.33 -259.664 1753.87 -234.657 1753.87 -203.845V717.165C1753.87 747.977 1777.33 772.984 1806.23 772.984H2024.37V1400.05C2018.82 1397.93 2013.06 1396.26 2006.89 1396.26H1762.56C1756.39 1396.26 1750.63 1397.93 1745.07 1400.05V1159.03C1745.07 1128.21 1721.62 1103.21 1692.71 1103.21H1448.39C1419.49 1103.21 1396.03 1128.21 1396.03 1159.03V1410.21C1396.03 1441.02 1419.49 1466.03 1448.39 1466.03H1692.71C1698.89 1466.03 1704.65 1464.36 1710.2 1462.23V1703.26C1710.2 1734.07 1733.66 1759.08 1762.56 1759.08H2006.89C2035.79 1759.08 2059.25 1734.07 2059.25 1703.26V1457.66C2064.8 1459.78 2070.56 1461.45 2076.74 1461.45H2321.06C2349.96 1461.45 2373.42 1436.45 2373.42 1405.63V1126.54H2878.5Z" fill="#FAFAFA"/>
<path d="M2878.5 1126.54C2907.41 1126.54 2930.87 1101.53 2930.87 1070.72V707.899C2930.87 677.087 2907.41 652.08 2878.5 652.08H2321.06H2320.01H2102.92V414.851H2299.28C2328.18 414.851 2351.64 389.844 2351.64 359.032V107.847C2351.64 77.0353 2328.18 52.0285 2299.28 52.0285H2102.92V-203.845C2102.92 -234.657 2079.46 -259.664 2050.56 -259.664H1806.23C1777.33 -259.664 1753.87 -234.657 1753.87 -203.845V717.165C1753.87 747.977 1777.33 772.984 1806.23 772.984H2024.37V1400.05C2018.82 1397.93 2013.06 1396.26 2006.89 1396.26H1762.56C1756.39 1396.26 1750.63 1397.93 1745.07 1400.05V1159.03C1745.07 1128.21 1721.62 1103.21 1692.71 1103.21H1448.39C1419.49 1103.21 1396.03 1128.21 1396.03 1159.03V1410.21C1396.03 1441.02 1419.49 1466.03 1448.39 1466.03H1692.71C1698.89 1466.03 1704.65 1464.36 1710.2 1462.23V1703.26C1710.2 1734.07 1733.66 1759.08 1762.56 1759.08H2006.89C2035.79 1759.08 2059.25 1734.07 2059.25 1703.26V1457.66C2064.8 1459.78 2070.56 1461.45 2076.74 1461.45H2321.06C2349.96 1461.45 2373.42 1436.45 2373.42 1405.63V1126.54H2878.5Z" fill="#F5F6FA"/>
</g>
<g opacity="0.1">
<path d="M588.742 771.138H450.759C434.436 771.138 421.188 785.189 421.188 802.501V943.636C421.188 960.948 434.436 974.999 450.759 974.999H588.742C605.065 974.999 618.314 960.948 618.314 943.636V802.501C618.314 785.126 605.065 771.138 588.742 771.138Z" fill="#FAFAFA"/>
<path d="M588.742 771.138H450.759C434.436 771.138 421.188 785.189 421.188 802.501V943.636C421.188 960.948 434.436 974.999 450.759 974.999H588.742C605.065 974.999 618.314 960.948 618.314 943.636V802.501C618.314 785.126 605.065 771.138 588.742 771.138Z" fill="#F5F6FA"/>
</g>
</g>
</svg>
